<svg xmlns="http://www.w3.org/2000/svg" viewBox="0 0 150 150"><defs><style>.cls-1{fill:none;}.cls-2{fill:#fff;}</style></defs><g id="Layer_2" data-name="Layer 2"><g id="Layer_1-2" data-name="Layer 1"><rect class="cls-1" width="150" height="150"/><path class="cls-2" d="M30.63,37h1.85a1.85,1.85,0,1,0,0-3.69H30.63a1.85,1.85,0,1,0,0,3.69Z"/><path class="cls-2" d="M39.87,37h1.85a1.85,1.85,0,1,0,0-3.69H39.87a1.85,1.85,0,1,0,0,3.69Z"/><path class="cls-2" d="M49.12,37H51a1.85,1.85,0,0,0,0-3.69H49.12a1.85,1.85,0,1,0,0,3.69Z"/><path class="cls-2" d="M58.36,37h49.92a1.85,1.85,0,1,0,0-3.69H58.36a1.85,1.85,0,1,0,0,3.69Z"/><path class="cls-2" d="M126.77,79.74h-1.85V70.49a20.24,20.24,0,0,0-5.55-13.91V35.14a9.25,9.25,0,0,0-9.24-9.25H28.78a9.25,9.25,0,0,0-9.24,9.25V96.38a9.25,9.25,0,0,0,9.24,9.24H78.7v5.55a13,13,0,0,0,12.94,12.94h25.88a13,13,0,0,0,12.94-12.94V83.43A3.69,3.69,0,0,0,126.77,79.74Zm-5.55,0H87.94V70.49a16.64,16.64,0,0,1,33.28,0ZM28.78,29.59h81.35a5.54,5.54,0,0,1,5.54,5.55v5.54H23.23V35.14A5.55,5.55,0,0,1,28.78,29.59ZM23.23,96.38v-52h92.44v9.09a20.31,20.31,0,0,0-31.43,17v9.25H82.4a3.69,3.69,0,0,0-3.7,3.69v18.49H28.78A5.55,5.55,0,0,1,23.23,96.38Zm94.29,24H91.64A9.25,9.25,0,0,1,82.58,113h5.36a1.85,1.85,0,1,0,0-3.7H82.4v-3.7h5.54a1.85,1.85,0,1,0,0-3.7H82.4V98.23h5.54a1.85,1.85,0,1,0,0-3.7H82.4v-3.7h5.54a1.85,1.85,0,1,0,0-3.7H82.4v-3.7h44.37v3.7h-5.55a1.85,1.85,0,1,0,0,3.7h5.55v3.7h-5.55a1.85,1.85,0,1,0,0,3.7h5.55v3.69h-5.55a1.85,1.85,0,1,0,0,3.7h5.55v3.7h-5.55a1.85,1.85,0,1,0,0,3.7h5.36A9.25,9.25,0,0,1,117.52,120.41Z"/><path class="cls-2" d="M104.58,92.68a5.53,5.53,0,0,0-1.85,10.75v4a1.85,1.85,0,1,0,3.7,0v-4a5.53,5.53,0,0,0-1.85-10.75Zm0,7.39a1.85,1.85,0,1,1,1.85-1.84A1.84,1.84,0,0,1,104.58,100.07Z"/><path class="cls-2" d="M48.24,59.79a1.85,1.85,0,0,0-1.85,1.85v5.55H31.6V52.4H39a1.85,1.85,0,1,0,0-3.7H31.6a3.7,3.7,0,0,0-3.7,3.7V67.19a3.7,3.7,0,0,0,3.7,3.7H46.39a3.7,3.7,0,0,0,3.7-3.7V61.64A1.85,1.85,0,0,0,48.24,59.79Z"/><path class="cls-2" d="M36.61,56.64A1.85,1.85,0,0,0,34,59.25l3.7,3.7a1.85,1.85,0,0,0,1.31.54h.08a1.85,1.85,0,0,0,1.34-.66l9.24-11.09A1.83,1.83,0,0,0,50,49.92a1.85,1.85,0,0,0-3.16-.55l-8,9.54Z"/><path class="cls-2" d="M74.09,50.55H56.58a1.85,1.85,0,0,0,0,3.7H74.09a1.85,1.85,0,0,0,0-3.7Z"/><path class="cls-2" d="M72.24,59.79H56.58a1.85,1.85,0,0,0,0,3.7H72.24a1.85,1.85,0,1,0,0-3.7Z"/><path class="cls-2" d="M48.24,86.29a1.85,1.85,0,0,0-1.85,1.85v5.55H31.6V78.89H39a1.85,1.85,0,1,0,0-3.69H31.6a3.7,3.7,0,0,0-3.7,3.69v14.8a3.7,3.7,0,0,0,3.7,3.69H46.39a3.69,3.69,0,0,0,3.7-3.69V88.14A1.85,1.85,0,0,0,48.24,86.29Z"/><path class="cls-2" d="M36.61,83.13A1.85,1.85,0,0,0,34,85.75l3.7,3.7A1.89,1.89,0,0,0,39,90h.08a1.92,1.92,0,0,0,1.34-.66l9.24-11.1A1.82,1.82,0,0,0,50,76.41a1.86,1.86,0,0,0-3.16-.55l-8,9.54Z"/><path class="cls-2" d="M74.09,77.05H56.58a1.85,1.85,0,1,0,0,3.69H74.09a1.85,1.85,0,1,0,0-3.69Z"/><path class="cls-2" d="M72.24,86.29H56.58a1.85,1.85,0,0,0,0,3.7H72.24a1.85,1.85,0,1,0,0-3.7Z"/></g></g></svg>