<svg xmlns="http://www.w3.org/2000/svg" viewBox="0 0 150 150"><defs><style>.cls-1{fill:none;}.cls-2{fill:#fff;}</style></defs><g id="Layer_2" data-name="Layer 2"><g id="Layer_1-2" data-name="Layer 1"><rect class="cls-1" width="150" height="150"/><path class="cls-2" d="M78.6,34.6a2.44,2.44,0,0,0-1.86-.71l-16.9.91a20.64,20.64,0,1,0-25,25.07l-.91,16.87a2.41,2.41,0,0,0,.69,1.84L86.06,130a2.43,2.43,0,0,0,1.71.71,2.4,2.4,0,0,0,1.75-.69L130.05,89.5a2.43,2.43,0,0,0,.72-1.75,2.4,2.4,0,0,0-.72-1.71ZM28.64,51A15.83,15.83,0,0,1,51,28.62a15.53,15.53,0,0,1,3.9,6.45l-11.58.63a8.26,8.26,0,0,0-7.62,7.62l-.63,11.6A15.67,15.67,0,0,1,28.64,51Zm59.13,73.89-48.95-49,1.74-32.34a3.45,3.45,0,0,1,3-3.05l12-.64A15.68,15.68,0,0,1,51,51a2.43,2.43,0,1,0,3.44,3.43,20.61,20.61,0,0,0,6.06-14.8L76,38.79l48.93,49Z"/><path class="cls-2" d="M56.57,71.3a9,9,0,1,0,12.68,0h0A9,9,0,0,0,56.57,71.3Zm9.24,9.24a4.11,4.11,0,1,1,0-5.81h0a4.11,4.11,0,0,1,0,5.79Z"/><path class="cls-2" d="M92.36,86.57A9,9,0,1,0,86,84,9,9,0,0,0,92.36,86.57ZM89.52,74.71a4.11,4.11,0,1,1,0,5.81h0a4.1,4.1,0,0,1,0-5.8Z"/><path class="cls-2" d="M75.49,99.57a2.43,2.43,0,0,0,4.86,0V55.66a2.43,2.43,0,1,0-4.86,0Z"/></g></g></svg>