<svg xmlns="http://www.w3.org/2000/svg" viewBox="0 0 150 150"><defs><style>.cls-1{fill:none;}.cls-2{fill:#fff;}</style></defs><g id="Layer_2" data-name="Layer 2"><g id="Layer_1-2" data-name="Layer 1"><rect class="cls-1" width="150" height="150"/><path class="cls-2" d="M121.87,21.44H28.13a6.68,6.68,0,0,0-6.69,6.69V104a6.69,6.69,0,0,0,6.69,6.7H54.91V124.1H50.45a2.23,2.23,0,0,0,0,4.46H72.77a2.23,2.23,0,0,0,0-4.46H59.38V110.71H72.77a2.23,2.23,0,0,0,0-4.46H28.13A2.23,2.23,0,0,1,25.9,104V97.32H72.77a2.24,2.24,0,0,0,0-4.47H25.9V28.13a2.23,2.23,0,0,1,2.23-2.23h93.74a2.23,2.23,0,0,1,2.23,2.23V46a2.23,2.23,0,0,0,4.46,0V28.13A6.68,6.68,0,0,0,121.87,21.44Z"/><path class="cls-2" d="M121.87,52.68H86.16a6.7,6.7,0,0,0-6.7,6.7v62.49a6.69,6.69,0,0,0,6.7,6.69h35.71a6.68,6.68,0,0,0,6.69-6.69V59.38A6.69,6.69,0,0,0,121.87,52.68Zm2.23,69.19a2.23,2.23,0,0,1-2.23,2.23H86.16a2.23,2.23,0,0,1-2.23-2.23V110.71H117.4a2.23,2.23,0,1,0,0-4.46H83.93V75H117.4a2.23,2.23,0,1,0,0-4.46H83.93V59.38a2.23,2.23,0,0,1,2.23-2.23h35.71a2.23,2.23,0,0,1,2.23,2.23Z"/><path class="cls-2" d="M108.48,115.17H99.55a2.24,2.24,0,0,0,0,4.47h8.93a2.24,2.24,0,0,0,0-4.47Z"/><path class="cls-2" d="M108.48,61.61H99.55a2.23,2.23,0,0,0,0,4.46h8.93a2.23,2.23,0,0,0,0-4.46Z"/><path class="cls-2" d="M37.06,30.36a6.7,6.7,0,0,0-6.7,6.7v4.46a2.24,2.24,0,0,0,4.47,0V37.06a2.23,2.23,0,0,1,2.23-2.23h4.46a2.24,2.24,0,0,0,0-4.47Z"/></g></g></svg>