<svg xmlns="http://www.w3.org/2000/svg" viewBox="0 0 150 150"><defs><style>.cls-1{fill:none;}.cls-2{fill:#fff;}</style></defs><g id="Layer_2" data-name="Layer 2"><g id="Layer_1-2" data-name="Layer 1"><rect class="cls-1" width="150" height="150"/><path class="cls-2" d="M39.31,128.47a17.8,17.8,0,0,1-17.78-17.78V39.31A17.8,17.8,0,0,1,39.31,21.53h71.38a17.8,17.8,0,0,1,17.78,17.78v71.38a17.8,17.8,0,0,1-17.78,17.78Zm0-99.92A10.78,10.78,0,0,0,28.55,39.31v71.38a10.78,10.78,0,0,0,10.76,10.76h71.38a10.78,10.78,0,0,0,10.76-10.76V39.31a10.78,10.78,0,0,0-10.76-10.76Z"/><path class="cls-2" d="M52.2,91.06,84.37,58.88H62.57v-7H92.84a3.51,3.51,0,0,1,3.51,3.51V85.65h-7V63.85L57.16,96Z"/></g></g></svg>