<svg xmlns="http://www.w3.org/2000/svg" viewBox="0 0 150 150"><defs><style>.cls-1{fill:none;}.cls-2{fill:#fff;}</style></defs><g id="Layer_2" data-name="Layer 2"><g id="Layer_1-2" data-name="Layer 1"><rect class="cls-1" width="150" height="150"/><path class="cls-2" d="M82.89,38,62.64,19.23a2.62,2.62,0,0,0-1.85-.66H30.28A13.16,13.16,0,0,0,17.12,31.72h0V87.23a13.16,13.16,0,0,0,13.16,13.16h35v24.46a6.57,6.57,0,0,0,6.57,6.58H126.3a6.58,6.58,0,0,0,6.58-6.58V62.11a6.59,6.59,0,0,0-6.58-6.58H83.68V40A2.59,2.59,0,0,0,82.89,38ZM82.5,92.63a13,13,0,0,0,1.18-5.53v-1h32v27H82.5ZM62.9,26.72,75.26,38.17H62.9ZM22.38,87.23V31.72a7.9,7.9,0,0,1,7.9-7.89H57.64v17a2.63,2.63,0,0,0,2.63,2.63H78.42v43.8a7.9,7.9,0,0,1-7.89,7.9H30.28a7.9,7.9,0,0,1-7.9-7.9ZM126.3,126.17H71.84a1.32,1.32,0,0,1-1.31-1.32V100.39h0a13.1,13.1,0,0,0,6.71-1.84v17.1a2.63,2.63,0,0,0,2.63,2.63h38.41a2.63,2.63,0,0,0,2.63-2.63V83.55a2.63,2.63,0,0,0-2.63-2.63H83.68V74h43.94v50.9A1.32,1.32,0,0,1,126.3,126.17Zm0-65.38a1.32,1.32,0,0,1,1.32,1.32v6.58H83.68v-7.9Z"/><path class="cls-2" d="M70.92,65.79l-9.34-9.86a2.63,2.63,0,0,0-3.81,3.55l7.63,8-7.63,8a2.63,2.63,0,0,0,3.32,4.08,2.73,2.73,0,0,0,.49-.53l9.34-9.87A2.61,2.61,0,0,0,70.92,65.79Z"/><path class="cls-2" d="M42.9,55.8a2.62,2.62,0,0,0-3.68.13l-9.34,9.86a2.63,2.63,0,0,0,0,3.55l9.34,9.87a2.63,2.63,0,0,0,4.31-3,2.75,2.75,0,0,0-.49-.53l-7.63-8,7.63-8a2.63,2.63,0,0,0,0-3.72Z"/><path class="cls-2" d="M53,50.53a2.63,2.63,0,0,0-3,2.11L45.67,81.58a2.62,2.62,0,0,0,2.17,3h.46a2.63,2.63,0,0,0,2.63-2.23l4.34-28.94A2.64,2.64,0,0,0,53,50.53Z"/><path class="cls-2" d="M135.38,30.8a2.64,2.64,0,0,0-3.69-.26l-5.91,5V27.65A15.79,15.79,0,0,0,110,11.86H94.73a2.63,2.63,0,0,0,0,5.26H110a10.52,10.52,0,0,1,10.52,10.53v7.89l-5.78-5.13a2.63,2.63,0,0,0-3.42,3.94l10.26,8.95a2.64,2.64,0,0,0,3.42,0l10.26-8.95A2.64,2.64,0,0,0,135.38,30.8Z"/><path class="cls-2" d="M16.6,120.12a2.66,2.66,0,0,0,1.84-.66l5.79-5v7.89A15.78,15.78,0,0,0,40,138.14H55.27a2.63,2.63,0,1,0,0-5.26H40a10.52,10.52,0,0,1-10.52-10.53v-7.89l5.79,5.13a2.63,2.63,0,0,0,3.42-3.94l-10.26-9a2.64,2.64,0,0,0-3.42,0l-10.13,8.81a2.63,2.63,0,0,0,1.71,4.61Z"/></g></g></svg>