<svg xmlns="http://www.w3.org/2000/svg" viewBox="0 0 150 150"><defs><style>.cls-1{fill:none;}.cls-2{fill:#fff;}</style></defs><g id="Layer_2" data-name="Layer 2"><g id="Layer_1-2" data-name="Layer 1"><rect class="cls-1" width="150" height="150"/><path class="cls-2" d="M75,87.57a3,3,0,0,1-2.17-.9L53.9,67.75a3.08,3.08,0,0,1,4.35-4.35L75,80.15,120.11,35a3.09,3.09,0,0,1,2.18-.9,3.08,3.08,0,0,1,2.18,5.25L77.12,86.72A3.07,3.07,0,0,1,75,87.57Z"/><path class="cls-2" d="M75,125.38A50.38,50.38,0,1,1,99.61,31.05a3.09,3.09,0,0,1-1.52,5.78,3.05,3.05,0,0,1-1.5-.39,44.22,44.22,0,1,0,21.74,29.73,3.08,3.08,0,0,1,2.4-3.63,3.18,3.18,0,0,1,.62-.06,3.09,3.09,0,0,1,3,2.46,51.78,51.78,0,0,1,1,10.1A50.38,50.38,0,0,1,75,125.38Z"/></g></g></svg>