<svg xmlns="http://www.w3.org/2000/svg" viewBox="0 0 150 150"><defs><style>.cls-1{fill:none;}.cls-2{fill:#fff;}</style></defs><g id="Layer_2" data-name="Layer 2"><g id="Layer_1-2" data-name="Layer 1"><rect class="cls-1" width="150" height="150"/><path class="cls-2" d="M49.74,131.43a22.4,22.4,0,0,1-22.37-22.37V88A22.47,22.47,0,0,1,45.31,66.09l1.19-.24V44.57a26.06,26.06,0,0,1,26-26h5a26.06,26.06,0,0,1,26,26V65.85l1.19.24A22.47,22.47,0,0,1,122.63,88v21a22.4,22.4,0,0,1-22.37,22.37Zm0-60.41A16.94,16.94,0,0,0,32.82,87.94v21a16.94,16.94,0,0,0,16.92,16.93h50.52A16.94,16.94,0,0,0,117.18,109v-21A16.94,16.94,0,0,0,100.26,71ZM72.5,24A20.63,20.63,0,0,0,51.94,44.57V65.7H98.06V44.57A20.63,20.63,0,0,0,77.48,24Z"/><path class="cls-2" d="M75,115.27a2.72,2.72,0,0,1-2.72-2.73v-20a2.72,2.72,0,1,1,5.44,0v20A2.72,2.72,0,0,1,75,115.27Z"/></g></g></svg>