<svg xmlns="http://www.w3.org/2000/svg" viewBox="0 0 150 150"><defs><style>.cls-1{fill:none;}.cls-2{fill:#fff;}</style></defs><g id="Layer_2" data-name="Layer 2"><g id="Layer_1-2" data-name="Layer 1"><rect class="cls-1" width="150" height="150"/><path class="cls-2" d="M96,49.69a34.09,34.09,0,0,0-29-6.32A33,33,0,0,0,42.44,67.62a33.47,33.47,0,0,0,12.13,35.06,4.14,4.14,0,0,1,1.32,3.16V123.9a6.75,6.75,0,0,0,6.72,6.72h4.22a8.65,8.65,0,0,0,8.3,6.06,8.83,8.83,0,0,0,8.31-6.06h4.21a6.75,6.75,0,0,0,6.72-6.72V105.71a3.68,3.68,0,0,1,1.19-2.9,33.44,33.44,0,0,0,13.31-26.62A34.4,34.4,0,0,0,96,49.69Zm-9.89,72.76H63.93V114.8H86.07Zm4.35-26.1a11.69,11.69,0,0,0-4.48,9.36v1.05h-22v-.92a12.4,12.4,0,0,0-4.48-9.62,25.61,25.61,0,0,1-9.23-26.76A25.05,25.05,0,0,1,68.81,51.28,25.93,25.93,0,0,1,91,56a25.31,25.31,0,0,1,9.75,20A25.71,25.71,0,0,1,90.42,96.35Z"/><path class="cls-2" d="M75,34.27a4.11,4.11,0,0,0,4.09-4.08V17.4a4.09,4.09,0,0,0-8.18,0V30.19A4.11,4.11,0,0,0,75,34.27Z"/><path class="cls-2" d="M45.61,46.4a4.14,4.14,0,0,0,0-5.8l-9.1-9.09a4.1,4.1,0,0,0-5.8,5.79l9.1,9.1a4.13,4.13,0,0,0,5.8,0Z"/><path class="cls-2" d="M29.26,71.84H16.48a4.09,4.09,0,1,0,0,8.17H29.26a4.09,4.09,0,1,0,0-8.17Z"/><path class="cls-2" d="M133.52,71.84H120.74a4.09,4.09,0,1,0,0,8.17h12.78a4.09,4.09,0,1,0,0-8.17Z"/><path class="cls-2" d="M119.29,31.64a4.14,4.14,0,0,0-5.8,0l-9.1,9.09a4.09,4.09,0,0,0,2.9,7,4.09,4.09,0,0,0,2.9-1.19l9.1-9.09A4.14,4.14,0,0,0,119.29,31.64Z"/><path class="cls-2" d="M81.85,68.81l-9.62,9.62-4.08-4.09a4.19,4.19,0,0,0-5.93,5.93l7.11,7.12a4.19,4.19,0,0,0,3,1.19,4.68,4.68,0,0,0,3-1.19L88.05,74.74a4.07,4.07,0,0,0,0-5.93A4.62,4.62,0,0,0,81.85,68.81Z"/></g></g></svg>